# xmcd
#
# Track frame offsets: 
#        150
#        18403
#        44946
#        60116
#        74399
#        93189
#        129326
#        147788
#        174111
#        207195
#
# Disc length: 3228 seconds
#
# Revision: 0
# Processed by: cddbd v1.5.2PL0 Copyright (c) Steve Scherf et al.
# Submitted via: ExactAudioCopy v0.95b4
#
DISCID=810c9a0a
DTITLE=Rolling Stones - Copacabana 2006 CD2
DYEAR=2006
DGENRE=Rock
TTITLE0=Happy
TTITLE1=Miss You
TTITLE2=Rough Justice
TTITLE3=Get Off Of My Cloud
TTITLE4=Honky Tonk Woman
TTITLE5=Sympathy For The Devil
TTITLE6=Start Me Up
TTITLE7=Brown Sugar
TTITLE8=Can't Always Get What You Want
TTITLE9=I Can't Get No Satisfaction
EXTD=
EXTT0=
EXTT1=
EXTT2=
EXTT3=
EXTT4=
EXTT5=
EXTT6=
EXTT7=
EXTT8=
EXTT9=
PLAYORDER=
